<svg xmlns="http://www.w3.org/2000/svg" xmlns:xlink="http://www.w3.org/1999/xlink" width="500" zoomAndPan="magnify" viewBox="0 0 375 374.999991" height="500" preserveAspectRatio="xMidYMid meet" version="1.0"><defs><clipPath id="f7839b5c65"><path d="M 23.421875 99 L 246 99 L 246 224 L 23.421875 224 Z M 23.421875 99 " clip-rule="nonzero"/></clipPath><clipPath id="c3ad5c99d4"><path d="M 132 151 L 351.921875 151 L 351.921875 276 L 132 276 Z M 132 151 " clip-rule="nonzero"/></clipPath><clipPath id="d9eaf29e2a"><path d="M 164.394531 174.398438 L 171.894531 174.398438 L 171.894531 181.898438 L 164.394531 181.898438 Z M 164.394531 174.398438 " clip-rule="nonzero"/></clipPath></defs><g clip-path="url(#f7839b5c65)"><path fill="#09333f" d="M 209.992188 192.675781 L 245.105469 157.5625 L 201.175781 113.636719 C 182.398438 94.855469 151.949219 94.855469 133.167969 113.636719 L 23.421875 223.382812 L 93.992188 223.894531 L 167.601562 150.277344 Z M 209.992188 192.675781 " fill-opacity="1" fill-rule="nonzero"/></g><g clip-path="url(#c3ad5c99d4)"><path fill="#09333f" d="M 282.699219 151.488281 L 209.992188 224.191406 L 168.023438 182.222656 L 132.910156 217.335938 L 178.605469 263.027344 C 195.707031 280.128906 223.4375 280.128906 240.535156 263.027344 L 351.582031 151.988281 Z M 282.699219 151.488281 " fill-opacity="1" fill-rule="nonzero"/></g><g clip-path="url(#d9eaf29e2a)"><path fill="#09333f" d="M 168.117188 174.398438 C 170.171875 174.398438 171.835938 176.066406 171.835938 178.121094 C 171.835938 180.175781 170.171875 181.839844 168.117188 181.839844 C 166.0625 181.839844 164.394531 180.175781 164.394531 178.121094 C 164.394531 176.066406 166.0625 174.398438 168.117188 174.398438 Z M 168.117188 174.398438 " fill-opacity="1" fill-rule="evenodd"/></g></svg>